<?xml version="1.0" encoding="utf-8"?>
<!-- Generator: Adobe Illustrator 16.0.0, SVG Export Plug-In . SVG Version: 6.00 Build 0)  -->
<!DOCTYPE svg PUBLIC "-//W3C//DTD SVG 1.1//EN" "http://www.w3.org/Graphics/SVG/1.1/DTD/svg11.dtd">
<?xml-stylesheet type="text/css" href="../../../assets/css/style.css"?>
<svg version="1.1" xmlns="http://www.w3.org/2000/svg" xmlns:xlink="http://www.w3.org/1999/xlink" x="0px" y="0px" width="1920px"
	 height="1080px" viewBox="0 0 1920 1080" enable-background="new 0 0 1920 1080" xml:space="preserve">

<g id="_x32_호선-_텍스트">
	<text transform="matrix(0.98 0 0 1 1427.5 548.833)"><tspan x="0" y="0" font-family="'NotoSansKR-Medium-KSCpc-EUC-H'" font-size="10">구의</tspan><tspan x="16.899" y="0" font-family="'NotoSansKR-Regular-KSCpc-EUC-H'" font-size="10">(광진구청)</tspan></text>
	<text transform="matrix(0.98 0 0 1 1195 485.333)" font-family="'NotoSansKR-Medium-KSCpc-EUC-H'" font-size="10">한양대</text>
	<text transform="matrix(0.98 0 0 1 1158.167 396.9995)" font-family="'NotoSansKR-Medium-KSCpc-EUC-H'" font-size="10">상왕십리</text>
	<text transform="matrix(0.98 0 0 1 1170.166 379.833)" font-family="'NotoSansKR-Medium-KSCpc-EUC-H'" font-size="10">신답</text>
	<text transform="matrix(0.98 0 0 1 1219.75 505.583)" font-family="'NotoSansKR-Medium-KSCpc-EUC-H'" font-size="10">뚝섬</text>
	<text transform="matrix(0.98 0 0 1 1275.083 467.916)" font-family="'NotoSansKR-Medium-KSCpc-EUC-H'" font-size="10">용답</text>
	<text transform="matrix(0.98 0 0 1 1460.833 580.166)"><tspan x="0" y="0" font-family="'NotoSansKR-Medium-KSCpc-EUC-H'" font-size="10">강변</tspan><tspan x="16.9" y="0" font-family="'NotoSansKR-Regular-KSCpc-EUC-H'" font-size="10">(동서울터미널)</tspan></text>
	<text transform="matrix(0.98 0 0 1 1279.3262 724.833)"><tspan x="0" y="0" font-family="'NotoSansKR-Regular-KSCpc-EUC-H'" font-size="10">(무역센터)</tspan><tspan x="11.08" y="10" font-family="'NotoSansKR-Medium-KSCpc-EUC-H'" font-size="10">삼성</tspan></text>
	<text transform="matrix(0.98 0 0 1 741.6597 433.166)"><tspan x="0" y="0" font-family="'NotoSansKR-Medium-KSCpc-EUC-H'" font-size="10">신촌</tspan><tspan x="16.899" y="0" font-family="'NotoSansKR-Regular-KSCpc-EUC-H'" font-size="10">(지하)</tspan></text>
	<text transform="matrix(0.98 0 0 1 707.1846 417.8325)" font-family="'NotoSansKR-Medium-KSCpc-EUC-H'" font-size="10">이대</text>
	<text transform="matrix(0.98 0 0 1 858.7627 375.8325)" font-family="'NotoSansKR-Medium-KSCpc-EUC-H'" font-size="10">을지로입구</text>
	<text transform="matrix(0.98 0 0 1 707.1846 398.4995)" font-family="'NotoSansKR-Medium-KSCpc-EUC-H'" font-size="10">아현</text>
	<text transform="matrix(0.98 0 0 1 799.0957 762.833)"><tspan x="0" y="0" font-family="'NotoSansKR-Medium-KSCpc-EUC-H'" font-size="10">서울대입구</tspan><tspan x="1.595" y="12" font-family="'NotoSansKR-Regular-KSCpc-EUC-H'" font-size="10">(관악구청)</tspan></text>
	<text transform="matrix(0.98 0 0 1 1005.3594 722.832)"><tspan x="0" y="0" font-family="'NotoSansKR-Regular-KSCpc-EUC-H'" font-size="10">(법원·검찰청)</tspan><tspan x="28.41" y="14" font-family="'NotoSansKR-Medium-KSCpc-EUC-H'" font-size="14" letter-spacing="-1.02">교대</tspan></text>
	<text transform="matrix(0.98 0 0 1 608.1494 712.999)"><tspan x="0" y="0" font-family="'NotoSansKR-Medium-KSCpc-EUC-H'" font-size="14" letter-spacing="-1.02">대림</tspan><tspan x="23.66" y="0" font-family="'NotoSansKR-Regular-KSCpc-EUC-H'" font-size="10">(구로구청)</tspan></text>
	<text transform="matrix(0.98 0 0 1 744.4355 365.9995)"><tspan x="0" y="0" font-family="'NotoSansKR-Regular-KSCpc-EUC-H'" font-size="10">(경기대입구)</tspan><tspan x="5.86" y="14" font-family="'NotoSansKR-Medium-KSCpc-EUC-H'" font-size="14" letter-spacing="-1.02">충정로</tspan></text>
	
		<text transform="matrix(0.98 0 0 1 522.7515 524.333)" font-family="'NotoSansKR-Medium-KSCpc-EUC-H'" font-size="14" letter-spacing="-1.02">영등포구청</text>
	
		<text transform="matrix(0.98 0 0 1 439.5537 499.041)" font-family="'NotoSansKR-Medium-KSCpc-EUC-H'" font-size="14" letter-spacing="-1.02">까치산</text>
	
		<text transform="matrix(0.98 0 0 1 568.0127 604.333)" font-family="'NotoSansKR-Medium-KSCpc-EUC-H'" font-size="14" letter-spacing="-1.02">신도림</text>
	
		<text transform="matrix(0.98 0 0 1 623.9756 511.416)" font-family="'NotoSansKR-Medium-KSCpc-EUC-H'" font-size="14" letter-spacing="-1.02">당산</text>
	
		<text transform="matrix(0.98 0 0 1 680.7256 475.416)" font-family="'NotoSansKR-Medium-KSCpc-EUC-H'" font-size="14" letter-spacing="-1.02">합정</text>
	
		<text transform="matrix(0.98 0 0 1 741.1313 455.416)" class="ttt">홍대입구</text>
	
		<text transform="matrix(0.98 0 0 1 816.7251 376.916)" font-family="'NotoSansKR-Medium-KSCpc-EUC-H'" font-size="14" letter-spacing="-1.02">시청</text>
	
		<text transform="matrix(0.98 0 0 1 913.2358 375.916)" font-family="'NotoSansKR-Medium-KSCpc-EUC-H'" font-size="14" letter-spacing="-1.02">을지로3가</text>
	
		<text transform="matrix(0.98 0 0 1 960.2358 407.166)" font-family="'NotoSansKR-Medium-KSCpc-EUC-H'" font-size="14" letter-spacing="-1.02">을지로4가</text>
	
		<text transform="matrix(0.98 0 0 1 1097.7246 407.166)" font-family="'NotoSansKR-Medium-KSCpc-EUC-H'" font-size="14" letter-spacing="-1.02">신당</text>
	<text transform="matrix(0.98 0 0 1 1014.584 359.416)"><tspan x="0" y="0" font-family="'NotoSansKR-Medium-KSCpc-EUC-H'" font-size="14" letter-spacing="-1.02">동대문역사</tspan><tspan x="5.915" y="16.8" font-family="'NotoSansKR-Medium-KSCpc-EUC-H'" font-size="14" letter-spacing="-1.02">문화공원</tspan></text>
	
		<text transform="matrix(0.98 0 0 1 1121.5938 333.9995)" font-family="'NotoSansKR-Medium-KSCpc-EUC-H'" font-size="14" letter-spacing="-1.02">신설동</text>
	<text transform="matrix(0.98 0 0 1 1487.166 643.5)" font-family="'NotoSansKR-Medium-KSCpc-EUC-H'" font-size="10">잠실나루</text>
	<text transform="matrix(0.98 0 0 1 1413.166 733)" font-family="'NotoSansKR-Medium-KSCpc-EUC-H'" font-size="10">잠실새내</text>
	<text transform="matrix(0.98 0 0 1 1165.166 732.333)" font-family="'NotoSansKR-Medium-KSCpc-EUC-H'" font-size="10">역삼</text>
	<text transform="matrix(0.98 0 0 1 994.499 762.666)" font-family="'NotoSansKR-Medium-KSCpc-EUC-H'" font-size="10">서초</text>
	<text transform="matrix(0.98 0 0 1 943.4985 762.666)" font-family="'NotoSansKR-Medium-KSCpc-EUC-H'" font-size="10">방배</text>
	<text transform="matrix(0.98 0 0 1 853.7095 762.666)" font-family="'NotoSansKR-Medium-KSCpc-EUC-H'" font-size="10">낙성대</text>
	<text transform="matrix(0.98 0 0 1 762.3501 762.666)" font-family="'NotoSansKR-Medium-KSCpc-EUC-H'" font-size="10">봉천</text>
	<text transform="matrix(0.98 0 0 1 716.8501 762.666)" font-family="'NotoSansKR-Medium-KSCpc-EUC-H'" font-size="10">신림</text>
	<text transform="matrix(0.98 0 0 1 663.7095 762.666)" font-family="'NotoSansKR-Medium-KSCpc-EUC-H'" font-size="10">신대방</text>
	<text transform="matrix(0.98 0 0 1 596.8501 557.166)" font-family="'NotoSansKR-Medium-KSCpc-EUC-H'" font-size="10">문래</text>
	<text transform="matrix(0.98 0 0 1 543.0435 585.499)" font-family="'NotoSansKR-Medium-KSCpc-EUC-H'" font-size="10">도림천</text>
	<text transform="matrix(0.98 0 0 1 522.5825 564.374)" font-family="'NotoSansKR-Medium-KSCpc-EUC-H'" font-size="10">양천구청</text>
	<text transform="matrix(0.98 0 0 1 497.27 539.0615)" font-family="'NotoSansKR-Medium-KSCpc-EUC-H'" font-size="10">신정네거리</text>
	<text transform="matrix(0.98 0 0 1 641.4814 731.333)" font-family="'NotoSansKR-Medium-KSCpc-EUC-H'" font-size="10">구로디지털단지</text>
	<text transform="matrix(0.98 0 0 1 1487.166 700.834)"><tspan x="0" y="0" font-family="'NotoSansKR-Medium-KSCpc-EUC-H'" font-size="14" letter-spacing="-1.02">잠실</tspan><tspan x="23.66" y="0" font-family="'NotoSansKR-Regular-KSCpc-EUC-H'" font-size="10">(송파구청)</tspan></text>
	<text transform="matrix(0.98 0 0 1 1184.1592 416.334)"><tspan x="0" y="0" font-family="'NotoSansKR-Regular-KSCpc-EUC-H'" font-size="10">(성동구청)</tspan><tspan x="1.635" y="14" font-family="'NotoSansKR-Medium-KSCpc-EUC-H'" font-size="14" letter-spacing="-1.02">왕십리</tspan></text>
	<text transform="matrix(0.98 0 0 1 1147.2031 358.5005)"><tspan x="0" y="0" font-family="'NotoSansKR-Medium-KSCpc-EUC-H'" font-size="10">용두</tspan><tspan x="-30.61" y="12" font-family="'NotoSansKR-Regular-KSCpc-EUC-H'" font-size="10">(동대문구청)</tspan></text>
	
		<text transform="matrix(0.98 0 0 1 1330.166 732.834)" font-family="'NotoSansKR-Medium-KSCpc-EUC-H'" font-size="14" letter-spacing="-1.02">종합운동장</text>
	
		<text transform="matrix(0.98 0 0 1 1214.999 732.001)" font-family="'NotoSansKR-Medium-KSCpc-EUC-H'" font-size="14" letter-spacing="-1.02">선릉</text>
	
		<text transform="matrix(0.98 0 0 1 1112.332 732.001)" font-family="'NotoSansKR-Medium-KSCpc-EUC-H'" font-size="14" letter-spacing="-1.02">강남</text>
	
		<text transform="matrix(0.98 0 0 1 905.6655 732.001)" font-family="'NotoSansKR-Medium-KSCpc-EUC-H'" font-size="14" letter-spacing="-1.02">사당</text>
	
		<text transform="matrix(0.98 0 0 1 1325.334 527.5)" font-family="'NotoSansKR-Medium-KSCpc-EUC-H'" font-size="14" letter-spacing="-1.02">건대입구</text>
	
		<text transform="matrix(0.98 0 0 1 1236.166 526.5)" font-family="'NotoSansKR-Medium-KSCpc-EUC-H'" font-size="14" letter-spacing="-1.02">성수</text>
</g>
</svg>
